<svg width="856" height="271" viewBox="0 0 856 271" fill="none" xmlns="http://www.w3.org/2000/svg">
<path d="M215.408 113.662C207.667 113.662 201.862 114.884 197.992 117.328C194.325 119.569 191.881 123.949 190.659 130.467C189.64 136.985 189.131 146.661 189.131 159.493V197.381C179.761 203.288 167.845 208.482 153.383 212.963C139.124 217.445 124.152 219.685 108.468 219.685C91.9684 219.685 76.9968 216.834 63.5529 211.13C50.3127 205.427 38.9058 197.584 29.3321 187.603C19.9621 177.622 12.731 166.012 7.63857 152.771C2.54619 139.328 0 124.967 0 109.69C0 89.3204 4.17575 70.886 12.5273 54.3867C21.0825 37.8873 33.3042 24.749 49.1924 14.9716C65.0806 4.99054 84.228 0 106.634 0C117.023 0 127.208 1.01848 137.189 3.05543C147.17 5.09239 156.132 7.53674 164.077 10.3885C172.021 13.2402 177.928 15.9901 181.798 18.6381V57.7476L178.437 57.1365C176.808 45.5259 172.428 36.0541 165.299 28.721C158.169 21.388 149.41 15.9901 139.022 12.5273C128.837 8.86075 118.041 7.02749 106.634 7.02749C88.7093 7.02749 73.7377 11.5088 61.7197 20.4714C49.9053 29.2303 41.0446 41.3502 35.1374 56.831C29.434 72.3118 26.5822 89.9315 26.5822 109.69C26.5822 129.448 29.6377 147.17 35.7485 162.854C42.0631 178.335 51.3312 190.557 63.5529 199.52C75.7746 208.278 90.7462 212.658 108.468 212.658C123.337 212.658 135.457 210.621 144.827 206.547C154.401 202.269 162.04 195.751 167.743 186.992V163.16C167.743 152.16 167.539 143.401 167.132 136.883C166.725 130.161 165.706 125.171 164.077 121.912C162.447 118.449 159.901 116.208 156.438 115.19C152.975 114.171 148.086 113.662 141.772 113.662L141.161 110.607H216.019L215.408 113.662Z" fill="url(#paint0_linear_97_3)"/>
<path d="M452.791 107.551C452.791 128.328 448.615 147.272 440.263 164.382C431.912 181.289 419.792 194.733 403.904 204.714C388.219 214.695 369.174 219.685 346.767 219.685C330.064 219.685 314.991 216.834 301.547 211.13C288.307 205.223 276.9 197.177 267.326 186.992C257.956 176.808 250.725 164.891 245.633 151.244C240.744 137.596 238.3 123.032 238.3 107.551C238.3 86.7742 242.475 68.3398 250.827 52.2478C259.382 35.9522 271.502 23.2213 287.186 14.055C303.075 4.68499 322.12 0 344.323 0C366.729 0 385.979 4.68499 402.071 14.055C418.366 23.2213 430.893 35.9522 439.652 52.2478C448.411 68.3398 452.791 86.7742 452.791 107.551ZM426.208 109.69C426.208 89.9315 423.051 72.3118 416.737 56.831C410.626 41.3502 401.46 29.2303 389.238 20.4714C377.22 11.5088 362.248 7.02749 344.323 7.02749C326.601 7.02749 311.834 11.5088 300.019 20.4714C288.205 29.2303 279.344 41.3502 273.437 56.831C267.734 72.3118 264.882 89.9315 264.882 109.69C264.882 129.448 267.937 147.17 274.048 162.854C280.363 178.335 289.631 190.557 301.853 199.52C314.074 208.278 329.046 212.658 346.767 212.658C364.693 212.658 379.46 208.278 391.071 199.52C402.885 190.557 411.644 178.335 417.348 162.854C423.255 147.17 426.208 129.448 426.208 109.69Z" fill="url(#paint1_linear_97_3)"/>
<path d="M621.897 172.937L625.258 172.326V216.63H479.208L479.819 212.963C486.745 212.963 492.143 212.352 496.013 211.13C500.087 209.704 503.041 206.853 504.874 202.575C506.911 198.297 508.133 191.779 508.54 183.02C509.151 174.261 509.457 162.447 509.457 147.577V71.8026C509.457 56.9328 509.151 45.1185 508.54 36.3596C508.133 27.6007 506.911 21.0825 504.874 16.8049C503.041 12.3236 500.087 9.47183 496.013 8.24966C492.143 6.8238 486.745 6.11087 479.819 6.11087L479.208 2.74989H561.399L560.788 6.11087C553.863 6.11087 548.363 6.8238 544.289 8.24966C540.419 9.47183 537.465 12.3236 535.428 16.8049C533.595 21.0825 532.373 27.6007 531.762 36.3596C531.151 45.1185 530.845 56.9328 530.845 71.8026V152.16C530.845 166.215 531.049 177.215 531.456 185.159C532.067 193.103 533.188 198.908 534.817 202.575C536.65 206.241 539.4 208.89 543.067 210.519C567.51 210.519 586.759 207.566 600.814 201.658C614.869 195.751 621.897 186.178 621.897 172.937Z" fill="url(#paint2_linear_97_3)"/>
<path d="M648.085 2.74989H709.805C718.36 2.74989 727.832 3.05543 738.22 3.66652C748.609 4.07391 759.201 5.29608 769.997 7.33303C780.996 9.36999 791.588 12.731 801.773 17.416C811.958 21.8972 821.022 28.0081 828.967 35.7485C837.114 43.489 843.531 53.47 848.216 65.6917C853.104 77.7098 855.549 92.3758 855.549 109.69C855.549 126.8 853.104 141.365 848.216 153.383C843.531 165.197 837.216 175.076 829.272 183.02C821.532 190.761 812.977 196.973 803.607 201.658C794.237 206.14 784.765 209.501 775.191 211.741C765.821 213.778 757.164 215.102 749.22 215.713C741.276 216.324 734.961 216.63 730.276 216.63H648.085L648.696 212.963C655.622 212.963 661.02 212.352 664.89 211.13C668.964 209.704 671.918 206.853 673.751 202.575C675.788 198.297 677.112 191.779 677.723 183.02C678.334 174.261 678.639 162.447 678.639 147.577V71.8026C678.639 56.9328 678.334 45.1185 677.723 36.3596C677.112 27.6007 675.788 21.0825 673.751 16.8049C671.918 12.3236 668.964 9.47183 664.89 8.24966C661.02 6.8238 655.622 6.11087 648.696 6.11087L648.085 2.74989ZM711.333 209.297C713.166 209.501 715.101 209.602 717.138 209.602C719.378 209.602 721.517 209.602 723.554 209.602C732.313 209.602 741.479 208.788 751.053 207.158C760.83 205.325 770.302 202.269 779.469 197.992C788.839 193.714 797.19 187.807 804.523 180.27C812.06 172.53 817.967 162.956 822.245 151.549C826.726 139.939 828.967 125.986 828.967 109.69C828.967 93.598 826.726 79.8486 822.245 68.4416C817.967 56.831 812.162 47.2573 804.829 39.7206C797.496 32.1839 789.246 26.2767 780.08 21.9991C770.913 17.5178 761.442 14.3605 751.664 12.5273C742.091 10.694 732.822 9.77738 723.86 9.77738C714.693 9.77738 706.749 10.3885 700.027 11.6106V151.244C700.027 165.299 700.231 176.196 700.639 183.937C701.046 191.677 702.064 197.381 703.694 201.047C705.324 204.714 707.87 207.464 711.333 209.297Z" fill="url(#paint3_linear_97_3)"/>
<path d="M25.5483 254.05V254.941C25.5483 257.084 24.7815 258.898 23.2478 260.383C21.7142 261.85 19.661 262.584 17.0885 262.584C14.4664 262.584 12.2978 261.718 10.5828 259.987C8.86771 258.255 8.01018 256.136 8.01018 253.63C8.01018 251.123 8.86771 249.004 10.5828 247.272C12.2978 245.541 14.4664 244.675 17.0885 244.675C18.6881 244.675 20.1558 245.062 21.4915 245.838C22.8273 246.613 23.858 247.643 24.5836 248.93L23.0499 249.82C22.5057 248.765 21.6977 247.924 20.6258 247.297C19.5539 246.67 18.3747 246.357 17.0885 246.357C14.9281 246.357 13.1636 247.058 11.7949 248.46C10.4261 249.861 9.74173 251.585 9.74173 253.63C9.74173 255.674 10.4261 257.398 11.7949 258.799C13.1636 260.201 14.9281 260.902 17.0885 260.902C19.0344 260.902 20.5928 260.416 21.7636 259.443C22.9345 258.453 23.6024 257.2 23.7673 255.683H16.8906V254.05H25.5483ZM42.1384 262.287L40.5305 258.033H32.318L30.7101 262.287H28.8796L35.5337 244.972H37.3147L43.9688 262.287H42.1384ZM32.9364 256.4H39.9121L36.4242 247.124L32.9364 256.4ZM58.5653 244.972V246.604H53.2469V262.287H51.5154V246.604H46.1971V244.972H58.5653ZM74.8923 244.972H76.6238V262.287H74.8923V254.198H65.4924V262.287H63.7609V244.972H65.4924V252.566H74.8923V244.972ZM85.0265 260.655H93.4369V262.287H83.295V244.972H93.3132V246.604H85.0265V252.739H92.6948V254.372H85.0265V260.655ZM109.77 262.287L105.713 255.361H100.865V262.287H99.133V244.972H106.059C107.494 244.972 108.714 245.483 109.72 246.505C110.743 247.511 111.254 248.732 111.254 250.166C111.254 251.337 110.899 252.384 110.19 253.308C109.498 254.215 108.607 254.825 107.519 255.138L111.749 262.287H109.77ZM100.865 246.604V253.728H106.059C107.016 253.728 107.832 253.382 108.508 252.69C109.184 251.98 109.522 251.139 109.522 250.166C109.522 249.177 109.184 248.336 108.508 247.643C107.832 246.951 107.016 246.604 106.059 246.604H100.865ZM116.952 244.972H118.684V262.287H116.952V244.972ZM136.505 244.972H138.237V262.287H136.753L127.106 248.188V262.287H125.374V244.972H126.858L136.505 259.072V244.972ZM161.457 254.05V254.941C161.457 257.084 160.69 258.898 159.156 260.383C157.623 261.85 155.569 262.584 152.997 262.584C150.375 262.584 148.206 261.718 146.491 259.987C144.776 258.255 143.919 256.136 143.919 253.63C143.919 251.123 144.776 249.004 146.491 247.272C148.206 245.541 150.375 244.675 152.997 244.675C154.596 244.675 156.064 245.062 157.4 245.838C158.736 246.613 159.766 247.643 160.492 248.93L158.958 249.82C158.414 248.765 157.606 247.924 156.534 247.297C155.462 246.67 154.283 246.357 152.997 246.357C150.837 246.357 149.072 247.058 147.703 248.46C146.334 249.861 145.65 251.585 145.65 253.63C145.65 255.674 146.334 257.398 147.703 258.799C149.072 260.201 150.837 260.902 152.997 260.902C154.943 260.902 156.501 260.416 157.672 259.443C158.843 258.453 159.511 257.2 159.676 255.683H152.799V254.05H161.457ZM190.375 259.987C188.644 261.718 186.524 262.584 184.018 262.584C181.511 262.584 179.392 261.718 177.661 259.987C175.929 258.239 175.063 256.12 175.063 253.63C175.063 251.139 175.929 249.029 177.661 247.297C179.392 245.549 181.511 244.675 184.018 244.675C186.524 244.675 188.644 245.549 190.375 247.297C192.107 249.029 192.972 251.139 192.972 253.63C192.972 256.12 192.107 258.239 190.375 259.987ZM178.873 258.799C180.258 260.201 181.973 260.902 184.018 260.902C186.063 260.902 187.778 260.201 189.163 258.799C190.548 257.381 191.241 255.658 191.241 253.63C191.241 251.601 190.548 249.886 189.163 248.484C187.778 247.066 186.063 246.357 184.018 246.357C181.973 246.357 180.258 247.066 178.873 248.484C177.487 249.886 176.795 251.601 176.795 253.63C176.795 255.658 177.487 257.381 178.873 258.799ZM208.426 246.604H200.386V252.986H208.055V254.619H200.386V262.287H198.655V244.972H208.426V246.604ZM237.334 259.987C235.602 261.718 233.483 262.584 230.977 262.584C228.47 262.584 226.351 261.718 224.619 259.987C222.888 258.239 222.022 256.12 222.022 253.63C222.022 251.139 222.888 249.029 224.619 247.297C226.351 245.549 228.47 244.675 230.977 244.675C233.483 244.675 235.602 245.549 237.334 247.297C239.065 249.029 239.931 251.139 239.931 253.63C239.931 256.12 239.065 258.239 237.334 259.987ZM225.831 258.799C227.217 260.201 228.932 260.902 230.977 260.902C233.021 260.902 234.736 260.201 236.122 258.799C237.507 257.381 238.2 255.658 238.2 253.63C238.2 251.601 237.507 249.886 236.122 248.484C234.736 247.066 233.021 246.357 230.977 246.357C228.932 246.357 227.217 247.066 225.831 248.484C224.446 249.886 223.753 251.601 223.753 253.63C223.753 255.658 224.446 257.381 225.831 258.799ZM256.327 260.902C255.14 262.023 253.59 262.584 251.677 262.584C249.764 262.584 248.214 262.023 247.026 260.902C245.839 259.781 245.245 258.28 245.245 256.4V244.972H246.977V256.4C246.977 257.785 247.389 258.882 248.214 259.69C249.038 260.498 250.192 260.902 251.677 260.902C253.161 260.902 254.315 260.498 255.14 259.69C255.964 258.882 256.377 257.785 256.377 256.4V244.972H258.108V256.4C258.108 258.28 257.514 259.781 256.327 260.902ZM275.428 244.972V246.604H270.109V262.287H268.378V246.604H263.059V244.972H275.428ZM285.582 262.584C283.999 262.584 282.638 262.213 281.501 261.471C280.379 260.712 279.596 259.673 279.151 258.354L280.635 257.488C280.948 258.56 281.525 259.401 282.366 260.012C283.207 260.605 284.287 260.902 285.607 260.902C286.893 260.902 287.891 260.622 288.6 260.061C289.325 259.484 289.688 258.725 289.688 257.785C289.688 256.878 289.358 256.194 288.699 255.732C288.039 255.27 286.951 254.792 285.434 254.297C283.636 253.704 282.449 253.226 281.872 252.863C280.552 252.071 279.893 250.925 279.893 249.424C279.893 247.957 280.404 246.802 281.426 245.961C282.449 245.104 283.71 244.675 285.211 244.675C286.563 244.675 287.734 245.03 288.724 245.739C289.713 246.431 290.447 247.322 290.925 248.41L289.466 249.226C288.674 247.313 287.256 246.357 285.211 246.357C284.139 246.357 283.273 246.621 282.614 247.149C281.954 247.676 281.624 248.41 281.624 249.35C281.624 250.208 281.921 250.851 282.515 251.28C283.108 251.708 284.09 252.145 285.458 252.591C286.085 252.805 286.53 252.962 286.794 253.061C287.074 253.143 287.47 253.291 287.981 253.506C288.509 253.704 288.897 253.885 289.144 254.05C289.391 254.198 289.688 254.413 290.035 254.693C290.397 254.957 290.653 255.229 290.801 255.51C290.966 255.773 291.107 256.103 291.222 256.499C291.354 256.878 291.42 257.291 291.42 257.736C291.42 259.203 290.884 260.383 289.812 261.273C288.74 262.147 287.33 262.584 285.582 262.584ZM307.369 244.972V246.604H302.051V262.287H300.32V246.604H295.001V244.972H307.369ZM322.86 262.287L321.252 258.033H313.04L311.432 262.287H309.601L316.256 244.972H318.037L324.691 262.287H322.86ZM313.658 256.4H320.634L317.146 247.124L313.658 256.4ZM340.767 244.972H342.498V262.287H341.014L331.367 248.188V262.287H329.635V244.972H331.119L340.767 259.072V244.972ZM355.848 244.972C358.206 244.972 360.152 245.813 361.686 247.495C363.236 249.16 364.011 251.205 364.011 253.63C364.011 256.054 363.236 258.107 361.686 259.789C360.152 261.454 358.206 262.287 355.848 262.287H349.169V244.972H355.848ZM355.848 260.655C357.744 260.655 359.295 259.979 360.498 258.626C361.719 257.274 362.329 255.608 362.329 253.63C362.329 251.651 361.719 249.985 360.498 248.633C359.295 247.281 357.744 246.604 355.848 246.604H350.901V260.655H355.848ZM369.694 244.972H371.425V262.287H369.694V244.972ZM389.247 244.972H390.979V262.287H389.494L379.847 248.188V262.287H378.116V244.972H379.6L389.247 259.072V244.972ZM414.198 254.05V254.941C414.198 257.084 413.432 258.898 411.898 260.383C410.364 261.85 408.311 262.584 405.739 262.584C403.116 262.584 400.948 261.718 399.233 259.987C397.518 258.255 396.66 256.136 396.66 253.63C396.66 251.123 397.518 249.004 399.233 247.272C400.948 245.541 403.116 244.675 405.739 244.675C407.338 244.675 408.806 245.062 410.142 245.838C411.477 246.613 412.508 247.643 413.234 248.93L411.7 249.82C411.156 248.765 410.348 247.924 409.276 247.297C408.204 246.67 407.025 246.357 405.739 246.357C403.578 246.357 401.814 247.058 400.445 248.46C399.076 249.861 398.392 251.585 398.392 253.63C398.392 255.674 399.076 257.398 400.445 258.799C401.814 260.201 403.578 260.902 405.739 260.902C407.684 260.902 409.243 260.416 410.414 259.443C411.585 258.453 412.252 257.2 412.417 255.683H405.541V254.05H414.198ZM430.526 260.655H438.442V262.287H428.794V244.972H430.526V260.655ZM445.374 260.655H453.784V262.287H443.642V244.972H453.66V246.604H445.374V252.739H453.042V254.372H445.374V260.655ZM471.249 262.287L469.641 258.033H461.429L459.821 262.287H457.99L464.644 244.972H466.425L473.079 262.287H471.249ZM462.047 256.4H469.023L465.535 247.124L462.047 256.4ZM484.703 244.972C487.061 244.972 489.007 245.813 490.54 247.495C492.091 249.16 492.866 251.205 492.866 253.63C492.866 256.054 492.091 258.107 490.54 259.789C489.007 261.454 487.061 262.287 484.703 262.287H478.024V244.972H484.703ZM484.703 260.655C486.599 260.655 488.149 259.979 489.353 258.626C490.573 257.274 491.184 255.608 491.184 253.63C491.184 251.651 490.573 249.985 489.353 248.633C488.149 247.281 486.599 246.604 484.703 246.604H479.755V260.655H484.703ZM500.28 260.655H508.69V262.287H498.548V244.972H508.567V246.604H500.28V252.739H507.948V254.372H500.28V260.655ZM525.023 262.287L520.966 255.361H516.118V262.287H514.386V244.972H521.313C522.747 244.972 523.968 245.483 524.974 246.505C525.996 247.511 526.507 248.732 526.507 250.166C526.507 251.337 526.153 252.384 525.444 253.308C524.751 254.215 523.86 254.825 522.772 255.138L527.002 262.287H525.023ZM516.118 246.604V253.728H521.313C522.269 253.728 523.085 253.382 523.761 252.69C524.438 251.98 524.776 251.139 524.776 250.166C524.776 249.177 524.438 248.336 523.761 247.643C523.085 246.951 522.269 246.604 521.313 246.604H516.118ZM537.406 262.584C535.823 262.584 534.462 262.213 533.324 261.471C532.203 260.712 531.42 259.673 530.974 258.354L532.459 257.488C532.772 258.56 533.349 259.401 534.19 260.012C535.031 260.605 536.111 260.902 537.431 260.902C538.717 260.902 539.715 260.622 540.424 260.061C541.149 259.484 541.512 258.725 541.512 257.785C541.512 256.878 541.182 256.194 540.523 255.732C539.863 255.27 538.775 254.792 537.257 254.297C535.46 253.704 534.273 253.226 533.695 252.863C532.376 252.071 531.716 250.925 531.716 249.424C531.716 247.957 532.228 246.802 533.25 245.961C534.273 245.104 535.534 244.675 537.035 244.675C538.387 244.675 539.558 245.03 540.547 245.739C541.537 246.431 542.271 247.322 542.749 248.41L541.289 249.226C540.498 247.313 539.08 246.357 537.035 246.357C535.963 246.357 535.097 246.621 534.437 247.149C533.778 247.676 533.448 248.41 533.448 249.35C533.448 250.208 533.745 250.851 534.338 251.28C534.932 251.708 535.913 252.145 537.282 252.591C537.909 252.805 538.354 252.962 538.618 253.061C538.898 253.143 539.294 253.291 539.805 253.506C540.333 253.704 540.72 253.885 540.968 254.05C541.215 254.198 541.512 254.413 541.858 254.693C542.221 254.957 542.477 255.229 542.625 255.51C542.79 255.773 542.93 256.103 543.046 256.499C543.178 256.878 543.244 257.291 543.244 257.736C543.244 259.203 542.708 260.383 541.636 261.273C540.564 262.147 539.154 262.584 537.406 262.584ZM557.842 244.972H559.574V262.287H557.842V244.972ZM577.396 244.972H579.127V262.287H577.643L567.996 248.188V262.287H566.264V244.972H567.749L577.396 259.072V244.972ZM599.354 262.287L592.972 244.972H594.852L600.244 259.987L605.637 244.972H607.517L601.135 262.287H599.354ZM623.011 262.287L621.403 258.033H613.19L611.583 262.287H609.752L616.406 244.972H618.187L624.841 262.287H623.011ZM613.809 256.4H620.785L617.297 247.124L613.809 256.4ZM640.422 262.287L636.366 255.361H631.517V262.287H629.786V244.972H636.712C638.147 244.972 639.367 245.483 640.373 246.505C641.395 247.511 641.907 248.732 641.907 250.166C641.907 251.337 641.552 252.384 640.843 253.308C640.15 254.215 639.26 254.825 638.171 255.138L642.401 262.287H640.422ZM631.517 246.604V253.728H636.712C637.668 253.728 638.485 253.382 639.161 252.69C639.837 251.98 640.175 251.139 640.175 250.166C640.175 249.177 639.837 248.336 639.161 247.643C638.485 246.951 637.668 246.604 636.712 246.604H631.517ZM647.605 244.972H649.336V262.287H647.605V244.972ZM670.349 259.987C668.617 261.718 666.498 262.584 663.992 262.584C661.485 262.584 659.366 261.718 657.635 259.987C655.903 258.239 655.037 256.12 655.037 253.63C655.037 251.139 655.903 249.029 657.635 247.297C659.366 245.549 661.485 244.675 663.992 244.675C666.498 244.675 668.617 245.549 670.349 247.297C672.081 249.029 672.946 251.139 672.946 253.63C672.946 256.12 672.081 258.239 670.349 259.987ZM658.847 258.799C660.232 260.201 661.947 260.902 663.992 260.902C666.037 260.902 667.752 260.201 669.137 258.799C670.522 257.381 671.215 255.658 671.215 253.63C671.215 251.601 670.522 249.886 669.137 248.484C667.752 247.066 666.037 246.357 663.992 246.357C661.947 246.357 660.232 247.066 658.847 248.484C657.461 249.886 656.769 251.601 656.769 253.63C656.769 255.658 657.461 257.381 658.847 258.799ZM689.342 260.902C688.155 262.023 686.605 262.584 684.692 262.584C682.779 262.584 681.229 262.023 680.042 260.902C678.854 259.781 678.26 258.28 678.26 256.4V244.972H679.992V256.4C679.992 257.785 680.404 258.882 681.229 259.69C682.053 260.498 683.208 260.902 684.692 260.902C686.176 260.902 687.331 260.498 688.155 259.69C688.98 258.882 689.392 257.785 689.392 256.4V244.972H691.123V256.4C691.123 258.28 690.53 259.781 689.342 260.902ZM703.001 262.584C701.418 262.584 700.057 262.213 698.919 261.471C697.798 260.712 697.015 259.673 696.569 258.354L698.053 257.488C698.367 258.56 698.944 259.401 699.785 260.012C700.626 260.605 701.706 260.902 703.026 260.902C704.312 260.902 705.31 260.622 706.019 260.061C706.744 259.484 707.107 258.725 707.107 257.785C707.107 256.878 706.777 256.194 706.118 255.732C705.458 255.27 704.37 254.792 702.852 254.297C701.055 253.704 699.867 253.226 699.29 252.863C697.971 252.071 697.311 250.925 697.311 249.424C697.311 247.957 697.823 246.802 698.845 245.961C699.867 245.104 701.129 244.675 702.63 244.675C703.982 244.675 705.153 245.03 706.142 245.739C707.132 246.431 707.866 247.322 708.344 248.41L706.884 249.226C706.093 247.313 704.675 246.357 702.63 246.357C701.558 246.357 700.692 246.621 700.032 247.149C699.373 247.676 699.043 248.41 699.043 249.35C699.043 250.208 699.34 250.851 699.933 251.28C700.527 251.708 701.508 252.145 702.877 252.591C703.504 252.805 703.949 252.962 704.213 253.061C704.493 253.143 704.889 253.291 705.4 253.506C705.928 253.704 706.315 253.885 706.563 254.05C706.81 254.198 707.107 254.413 707.453 254.693C707.816 254.957 708.072 255.229 708.22 255.51C708.385 255.773 708.525 256.103 708.641 256.499C708.773 256.878 708.839 257.291 708.839 257.736C708.839 259.203 708.303 260.383 707.231 261.273C706.159 262.147 704.749 262.584 703.001 262.584ZM730.116 244.972C732.474 244.972 734.42 245.813 735.954 247.495C737.504 249.16 738.279 251.205 738.279 253.63C738.279 256.054 737.504 258.107 735.954 259.789C734.42 261.454 732.474 262.287 730.116 262.287H723.437V244.972H730.116ZM730.116 260.655C732.013 260.655 733.563 259.979 734.767 258.626C735.987 257.274 736.597 255.608 736.597 253.63C736.597 251.651 735.987 249.985 734.767 248.633C733.563 247.281 732.013 246.604 730.116 246.604H725.169V260.655H730.116ZM758.284 259.987C756.553 261.718 754.434 262.584 751.927 262.584C749.42 262.584 747.301 261.718 745.57 259.987C743.838 258.239 742.972 256.12 742.972 253.63C742.972 251.139 743.838 249.029 745.57 247.297C747.301 245.549 749.42 244.675 751.927 244.675C754.434 244.675 756.553 245.549 758.284 247.297C760.016 249.029 760.882 251.139 760.882 253.63C760.882 256.12 760.016 258.239 758.284 259.987ZM746.782 258.799C748.167 260.201 749.882 260.902 751.927 260.902C753.972 260.902 755.687 260.201 757.072 258.799C758.457 257.381 759.15 255.658 759.15 253.63C759.15 251.601 758.457 249.886 757.072 248.484C755.687 247.066 753.972 246.357 751.927 246.357C749.882 246.357 748.167 247.066 746.782 248.484C745.397 249.886 744.704 251.601 744.704 253.63C744.704 255.658 745.397 257.381 746.782 258.799ZM782.395 244.972V262.287H780.664V247.594L774.603 257.736H774.356L768.295 247.594V262.287H766.564V244.972H768.716L774.479 254.619L780.243 244.972H782.395ZM800.596 262.287L798.988 258.033H790.776L789.168 262.287H787.338L793.992 244.972H795.773L802.427 262.287H800.596ZM791.394 256.4H798.37L794.882 247.124L791.394 256.4ZM807.371 244.972H809.103V262.287H807.371V244.972ZM826.925 244.972H828.656V262.287H827.172L817.525 248.188V262.287H815.793V244.972H817.277L826.925 259.072V244.972ZM840.528 262.584C838.944 262.584 837.584 262.213 836.446 261.471C835.325 260.712 834.541 259.673 834.096 258.354L835.58 257.488C835.894 258.56 836.471 259.401 837.312 260.012C838.153 260.605 839.233 260.902 840.552 260.902C841.839 260.902 842.836 260.622 843.545 260.061C844.271 259.484 844.634 258.725 844.634 257.785C844.634 256.878 844.304 256.194 843.644 255.732C842.985 255.27 841.896 254.792 840.379 254.297C838.582 253.704 837.394 253.226 836.817 252.863C835.498 252.071 834.838 250.925 834.838 249.424C834.838 247.957 835.349 246.802 836.372 245.961C837.394 245.104 838.656 244.675 840.157 244.675C841.509 244.675 842.68 245.03 843.669 245.739C844.659 246.431 845.392 247.322 845.871 248.41L844.411 249.226C843.62 247.313 842.201 246.357 840.157 246.357C839.085 246.357 838.219 246.621 837.559 247.149C836.9 247.676 836.57 248.41 836.57 249.35C836.57 250.208 836.867 250.851 837.46 251.28C838.054 251.708 839.035 252.145 840.404 252.591C841.031 252.805 841.476 252.962 841.74 253.061C842.02 253.143 842.416 253.291 842.927 253.506C843.455 253.704 843.842 253.885 844.09 254.05C844.337 254.198 844.634 254.413 844.98 254.693C845.343 254.957 845.599 255.229 845.747 255.51C845.912 255.773 846.052 256.103 846.168 256.499C846.299 256.878 846.365 257.291 846.365 257.736C846.365 259.203 845.829 260.383 844.758 261.273C843.686 262.147 842.276 262.584 840.528 262.584Z" fill="black"/>
<defs>
<linearGradient id="paint0_linear_97_3" x1="429.094" y1="-69.0373" x2="429.094" y2="271.566" gradientUnits="userSpaceOnUse">
<stop stop-color="#FFD13A"/>
<stop offset="1" stop-color="#524800"/>
</linearGradient>
<linearGradient id="paint1_linear_97_3" x1="429.094" y1="-69.0373" x2="429.094" y2="271.566" gradientUnits="userSpaceOnUse">
<stop stop-color="#FFD13A"/>
<stop offset="1" stop-color="#524800"/>
</linearGradient>
<linearGradient id="paint2_linear_97_3" x1="429.094" y1="-69.0373" x2="429.094" y2="271.566" gradientUnits="userSpaceOnUse">
<stop stop-color="#FFD13A"/>
<stop offset="1" stop-color="#524800"/>
</linearGradient>
<linearGradient id="paint3_linear_97_3" x1="429.094" y1="-69.0373" x2="429.094" y2="271.566" gradientUnits="userSpaceOnUse">
<stop stop-color="#FFD13A"/>
<stop offset="1" stop-color="#524800"/>
</linearGradient>
</defs>
</svg>
